<svg xmlns="http://www.w3.org/2000/svg" width="16" height="16"><style type="text/css">.icon-canvas-transparent{opacity:0;fill:#F6F6F6;} .icon-vs-out{fill:#F6F6F6;} .icon-vs-bg{fill:#424242;} .icon-vs-fg{fill:#F0EFF1;} .icon-vs-action-blue{fill:#00539C;}</style><path class="icon-canvas-transparent" d="M16 16h-16v-16h16v16z" id="canvas"/><path class="icon-vs-out" d="M16 0v12h-2v2h-2v2h-11v-12h2v-2h2v-2h11z" id="outline"/><path class="icon-vs-bg" d="M4 3h9v10h-1v-9h-8v-1zm-2 3h8v9h1v-10h-9v1zm4-5v1h8v9h1v-10h-9z" id="iconBg"/><path id="foreground_2_" class="icon-vs-fg" d="M2 6v9h8v-9h-8zm7 6l-2-2v4h-2v-4l-2 2v-2l3-3 3 3v2z"/><path class="icon-vs-action-blue" d="M3 10v2l2-2v4h2v-4l2 2v-2l-3-3-3 3z" id="colorAction"/></svg>