<svg xmlns="http://www.w3.org/2000/svg" width="16" height="16"><style type="text/css">.icon-canvas-transparent{opacity:0;fill:#F6F6F6;} .icon-vs-out{fill:#F6F6F6;} .icon-vs-bg{fill:#424242;} .icon-vs-fg{fill:#F0EFF1;}</style><path class="icon-canvas-transparent" d="M16 16h-16v-16h16v16z" id="canvas"/><path class="icon-vs-out" d="M4 16c-.97 0-2-.701-2-2v-12c0-1.299 1.03-2 2-2h7.061l3.939 3.556v10.444c0 .971-.701 2-2 2h-9z" id="outline"/><path class="icon-vs-bg" d="M10.641,1H3.964C3.964,1,3,1,3,2c0,0.805,0,9.443,0,12c0,1,0.965,1,0.965,1s8,0,9,0S14,14,14,14V4L10.641,1z M13,14H4V2h6v3h3V14zM5,12h1v1H5V12zM9,12h1v1H9V12zM7,12h1v1H7V12zM11,12h1v1h-1V12zM7,10h1v1H7V10zM11,10h1v1h-1V10zM9,10h1v1H9V10zM5,10h1v1H5V10zM9,7l1-1v1.5L8.5,9L7,7.5V6l1,1V4h1V7z" id="iconBg"/><path class="icon-vs-fg" d="M10 5v-3h-6v12h9v-9h-3zm-4 8h-1v-1h1v1zm0-2h-1v-1h1v1zm2 2h-1v-1h1v1zm0-2h-1v-1h1v1zm2 2h-1v-1h1v1zm0-2h-1v-1h1v1zm0-3.5l-1.5 1.5-1.5-1.5v-1.5l1 1v-3h1v3l1-1v1.5zm2 5.5h-1v-1h1v1zm0-2h-1v-1h1v1z" id="iconFg"/></svg>